<svg width="29" height="29" viewBox="0 0 29 29" fill="none" xmlns="http://www.w3.org/2000/svg">
<path fill-rule="evenodd" clip-rule="evenodd" d="M21.7002 20.4736L28.7492 27.5211C29.0836 27.8554 29.0836 28.4084 28.7492 28.7428C28.5819 28.9164 28.3568 29 28.1382 29C27.9195 29 27.6944 28.91 27.5272 28.7428L20.4782 21.6953C18.3043 23.5858 15.468 24.7304 12.3679 24.7304C5.55045 24.7304 0 19.1812 0 12.3652C0 5.54922 5.54402 0 12.3679 0C19.1854 0 24.7359 5.54279 24.7359 12.3652C24.7359 15.4645 23.591 18.3002 21.7002 20.4736ZM12.5 2C6.71325 2 2 6.70547 2 12.4968C2 18.2882 6.71325 23 12.5 23C18.2931 23 23 18.2818 23 12.4968C23 6.71182 18.2931 2 12.5 2Z" fill="#626A8E"/>
</svg>
