<svg width="949" height="627" viewBox="0 0 949 627" fill="none" xmlns="http://www.w3.org/2000/svg">
<path fill-rule="evenodd" clip-rule="evenodd" d="M457.713 94C523.175 94 582.357 113.159 624.873 144.037V144.022C689.746 187.895 849.114 233.163 849.114 233.163C881.191 250.136 999.51 461.14 950.492 601.801C942.552 624.608 930.227 626.499 930.227 626.499H147.417C96.1833 620.971 98.0081 568.584 98.0081 533.533C98.0081 507.062 106.585 490.923 127.033 460.534L126.526 460.358C176.388 363.465 223.895 386.937 251.645 249.041L251.655 249.055C260.356 162.389 334.01 94 457.713 94Z" fill="url(#paint0_linear)"/>
<path fill-rule="evenodd" clip-rule="evenodd" d="M950.728 386.636V511.101H118.516C118.692 484.852 203.933 466.492 222.269 445.007L221.761 444.832C235.82 425.99 228.325 399.326 238.476 378.122L304.157 378.31V262.484H331.23L357.66 235.756L382.801 262.484H414.389V224.089H458.867V138.34H515.624C520.594 138.34 524.624 142.369 524.624 147.34V299.842H580.066V336.716H674.182V267.61H687.715V253.531H710.929V231.417H723.177V253.531H748.961V267.61H759.92V327.122H808.268V290.002H823.185V278.945H871.526V290.002H889.493V348.874H924.941V386.636H950.728Z" fill="#CFDEFF"/>
<path fill-rule="evenodd" clip-rule="evenodd" d="M563.025 205.439H566.684C565.577 204.62 564.923 203.324 564.922 201.947C564.914 199.578 566.822 197.646 569.192 197.625H595.622C597.992 197.646 599.9 199.578 599.891 201.947C599.891 203.325 599.237 204.62 598.129 205.439H614.936C616.366 205.452 617.516 206.616 617.512 208.044C617.517 209.474 616.366 210.639 614.936 210.653H563.025C561.595 210.639 560.445 209.474 560.451 208.044C560.446 206.616 561.596 205.452 563.025 205.439Z" fill="white"/>
<path fill-rule="evenodd" clip-rule="evenodd" d="M666.246 147.81H669.906C668.798 146.992 668.144 145.696 668.143 144.319C668.135 141.949 670.043 140.018 672.413 139.996H698.843C701.213 140.018 703.121 141.949 703.112 144.319C703.113 145.696 702.459 146.992 701.35 147.81H718.157C719.587 147.823 720.738 148.988 720.733 150.417C720.738 151.847 719.587 153.012 718.157 153.025H666.246C664.816 153.012 663.665 151.847 663.67 150.417C663.665 148.988 664.816 147.823 666.246 147.81Z" fill="white"/>
<path fill-rule="evenodd" clip-rule="evenodd" d="M848.726 244.566H852.385C851.277 243.748 850.623 242.452 850.623 241.075C850.615 238.705 852.523 236.774 854.893 236.752H881.323C883.693 236.774 885.6 238.705 885.592 241.075C885.593 242.452 884.939 243.748 883.83 244.566H900.637C902.067 244.579 903.218 245.744 903.213 247.173C903.218 248.603 902.067 249.768 900.637 249.78H848.726C847.296 249.768 846.145 248.603 846.15 247.173C846.145 245.744 847.296 244.579 848.726 244.566Z" fill="white"/>
<path fill-rule="evenodd" clip-rule="evenodd" d="M385.154 147.81H388.813C387.705 146.992 387.052 145.696 387.051 144.319C387.043 141.949 388.951 140.018 391.321 139.996H417.751C420.121 140.018 422.028 141.949 422.02 144.319C422.02 145.696 421.366 146.992 420.258 147.81H437.065C438.495 147.823 439.646 148.988 439.641 150.417C439.646 151.847 438.495 153.012 437.065 153.025H385.154C383.724 153.011 382.574 151.846 382.579 150.417C382.574 148.988 383.724 147.823 385.154 147.81Z" fill="white"/>
<path fill-rule="evenodd" clip-rule="evenodd" d="M250.593 252.09H254.252C253.144 251.272 252.49 249.976 252.49 248.599C252.482 246.229 254.39 244.298 256.76 244.276H283.19C285.56 244.298 287.467 246.229 287.459 248.599C287.459 249.976 286.805 251.272 285.697 252.09H302.504C303.934 252.103 305.085 253.268 305.08 254.697C305.085 256.127 303.934 257.292 302.504 257.305H250.593C249.163 257.292 248.012 256.127 248.017 254.697C248.012 253.268 249.163 252.103 250.593 252.09Z" fill="white"/>
<path fill-rule="evenodd" clip-rule="evenodd" d="M212.176 408.22H225.019V395.329H212.176V408.22ZM234.813 408.22H247.655V395.329H234.813V408.22ZM261.297 408.019H274.14V395.128H261.297V408.019ZM283.29 408.059H296.139V395.167H283.296V408.059H283.29ZM212.493 430.823H225.337V417.937H212.493V430.829V430.823ZM235.128 430.823H247.973V417.937H235.13V430.827L235.128 430.823ZM261.613 430.623H274.456V417.732H261.623V430.623H261.613ZM283.606 430.663H296.449V417.771H283.606V430.663Z" fill="#F6F8FF"/>
<path fill-rule="evenodd" clip-rule="evenodd" d="M317.152 292.203H329.995V279.484H317.152V292.203ZM339.787 292.203H352.63V279.483H339.787V292.203ZM366.271 292.005H379.114V279.291H366.271V292.011V292.005ZM388.266 292.044H401.109V279.324H388.266V292.044ZM317.472 314.498H330.315V301.78H317.472V314.498ZM340.108 314.498H352.95V301.778H340.108V314.498ZM366.593 314.3H379.436V301.581H366.593V314.3ZM388.586 314.338H401.429V301.618H388.586V314.338ZM317.307 340.255H330.151V327.535H317.307V340.255ZM339.943 340.255H352.786V327.537H339.95V340.255H339.943ZM366.427 340.057H379.269V327.339H366.434V340.057H366.427ZM388.42 340.097H401.263V327.377H388.42V340.104V340.097Z" fill="#F6F8FF"/>
<path fill-rule="evenodd" clip-rule="evenodd" d="M429.861 249.975H440.878V239.209H429.861V249.975ZM449.279 249.975H460.296V239.209H449.279V249.975ZM430.136 268.84H441.153V258.074H430.136V268.84ZM449.554 268.84H460.574V258.074H449.555V268.84H449.554Z" fill="#F6F8FF"/>
<path fill-rule="evenodd" clip-rule="evenodd" d="M541.375 321.324H552.395V310.568H541.376V321.334L541.375 321.324ZM560.794 321.324H571.811V310.568H560.794V321.334V321.324ZM541.651 340.189H552.668V329.423H541.651V340.189ZM561.069 340.189H572.086V329.423H561.069V340.189Z" fill="#F6F8FF"/>
<path fill-rule="evenodd" clip-rule="evenodd" d="M472.889 166.242H486.112V153.275H472.889V166.246V166.242ZM496.194 166.242H509.417V153.275H496.198V166.248L496.194 166.242ZM473.22 188.984H486.448V176.013H473.225V188.984H473.22ZM496.524 188.984H509.747V176.013H496.524V188.984Z" fill="#F6F8FF"/>
<path fill-rule="evenodd" clip-rule="evenodd" d="M823.532 319.067H839.913V302.627H823.532V319.067ZM852.403 319.067H868.778V302.627H852.403V319.067ZM823.942 347.901H840.322V331.461H823.942V347.901ZM852.811 347.901H869.192V331.461H852.811V347.901Z" fill="#F6F8FF"/>
<path fill-rule="evenodd" clip-rule="evenodd" d="M275.899 512.784H277.687V491.455C277.764 479.705 287.332 470.223 299.104 470.23H383.643C395.415 470.223 404.984 479.705 405.06 491.455V512.784H407.143V491.513C407.061 478.833 396.734 468.599 384.03 468.609H299.005C286.304 468.603 275.981 478.835 275.899 491.513V512.784H275.899Z" fill="white"/>
<path fill-rule="evenodd" clip-rule="evenodd" d="M297.364 512.784H385.402V491.513C385.324 478.84 375.009 468.608 362.313 468.609H320.446C307.749 468.608 297.434 478.84 297.357 491.513V512.784H297.364ZM299.152 512.773V491.455C299.222 479.709 308.784 470.224 320.552 470.227H361.924C373.693 470.225 383.253 479.709 383.324 491.455V512.768H299.155L299.152 512.773Z" fill="white"/>
<path fill-rule="evenodd" clip-rule="evenodd" d="M341.395 462.416C342.644 462.399 343.673 463.391 343.698 464.638V502.208C343.673 503.454 342.644 504.447 341.395 504.43C340.147 504.446 339.12 503.454 339.094 502.208V464.638C339.119 463.392 340.147 462.399 341.395 462.416Z" fill="white"/>
<path fill-rule="evenodd" clip-rule="evenodd" d="M336.283 498.504H346.488C347.715 498.503 348.713 499.491 348.722 500.717V535.395H334.048V500.717C334.057 499.491 335.055 498.503 336.283 498.504V498.504Z" fill="#6F8AFF"/>
<path fill-rule="evenodd" clip-rule="evenodd" d="M334.422 524.343H348.623C350.627 524.35 352.25 525.97 352.257 527.97C352.25 529.971 350.627 531.591 348.623 531.598H334.425C332.421 531.591 330.798 529.971 330.791 527.97C330.798 525.971 332.419 524.352 334.422 524.343Z" fill="#6F8AFF"/>
<path fill-rule="evenodd" clip-rule="evenodd" d="M268.018 512.784H414.752C417.441 512.783 419.627 514.949 419.644 517.633C419.626 520.317 417.441 522.482 414.752 522.48H268.018C265.33 522.482 263.144 520.317 263.126 517.633C263.143 514.949 265.329 512.783 268.018 512.784Z" fill="#8199FF"/>
<path fill-rule="evenodd" clip-rule="evenodd" d="M285.409 512.784H397.361C400.051 512.783 402.236 514.949 402.253 517.633C402.236 520.317 400.05 522.482 397.361 522.48H285.409C282.72 522.482 280.535 520.317 280.517 517.633C280.534 514.949 282.72 512.783 285.409 512.784Z" fill="#6581FB"/>
<path fill-rule="evenodd" clip-rule="evenodd" d="M312.853 512.784H369.917C372.606 512.783 374.79 514.95 374.807 517.633C374.79 520.316 372.605 522.481 369.917 522.48H312.853C310.165 522.481 307.98 520.317 307.962 517.633C307.979 514.95 310.164 512.783 312.853 512.784Z" fill="#8199FF"/>
<path fill-rule="evenodd" clip-rule="evenodd" d="M619.873 452.65C610.632 456.068 609.441 465.133 614.862 470.193C619.835 474.832 624.242 479.514 619.585 485.673C607.615 501.501 591.641 501.288 594.292 522.18C596.626 540.585 616.104 553.378 637.795 550.759C659.486 548.14 675.177 531.097 672.843 512.694C670.992 498.109 652.464 440.59 619.873 452.65Z" fill="#90A3FF"/>
<path fill-rule="evenodd" clip-rule="evenodd" d="M628.16 543.929L632.663 544.096C643.636 514.486 638.474 485.98 621.758 458.381C634.934 487.045 639.361 515.614 628.16 543.929Z" fill="#E6F3FF"/>
<path fill-rule="evenodd" clip-rule="evenodd" d="M639.857 486.582C647.498 481.089 651.603 478.407 654.093 474.449C656.144 471.178 657.085 467.034 657.999 459.714C658.434 456.235 658.144 449.851 666.104 451.755C672.458 453.275 671.653 471.674 668.889 480.69C665.499 491.748 650.933 490.649 668.399 511.154C674.501 518.314 675.028 538.293 666.841 545.574C639.409 569.967 589.866 522.508 639.857 486.582Z" fill="#7E87F4"/>
<path fill-rule="evenodd" clip-rule="evenodd" d="M659.483 468.618C657.559 480.659 651.909 489.405 647.082 499.059C639.332 514.557 634.576 539.677 648.28 551.539C649.154 551.819 650.059 551.845 650.94 551.616C645.943 545.604 643.025 536.724 642.959 527.328C642.959 519.577 645.989 508.289 649.587 498.922C652.481 491.387 662.152 475.7 659.567 468.814L659.483 468.618Z" fill="#E6F3FF"/>
<path fill-rule="evenodd" clip-rule="evenodd" d="M459.716 452.296C465.011 451.413 470.159 455.491 471.217 461.416C472.275 467.341 468.838 472.854 463.542 473.737C458.247 474.62 453.099 470.541 452.042 464.615C450.986 458.688 454.428 453.182 459.716 452.296Z" fill="#FBD1A8"/>
<path fill-rule="evenodd" clip-rule="evenodd" d="M459.759 458.629C459.759 458.629 467.214 458.357 469.84 456.595C472.466 454.833 472.138 454.374 471.716 453.423C471.293 452.471 469.351 453.311 469.351 453.311C469.351 453.311 464.214 454.374 464.214 455.689C464.214 456.242 463.018 456.302 462.104 456.822C461.254 457.33 460.466 457.936 459.759 458.629ZM457.415 460.662C457.415 460.662 457.17 465.165 454.368 466.327C453.402 466.729 452.288 466.338 451.789 465.421V464.076L457.415 460.662Z" fill="#654835"/>
<path fill-rule="evenodd" clip-rule="evenodd" d="M452.023 465.428C455.993 460.933 461.091 457.57 466.793 455.683L475.232 448.43L475.467 448.204L474.53 447.296L467.261 453.869C467.261 453.869 457.891 445.008 449.678 455.91C447.216 459.179 452.023 465.428 452.023 465.428Z" fill="#FF917C"/>
<path fill-rule="evenodd" clip-rule="evenodd" d="M460.131 473.002C459.964 473.646 459.609 474.225 459.111 474.668C458.497 475.115 457.809 475.453 457.08 475.667C457.08 475.667 460.778 479.663 463.171 479.663C465.989 479.663 467.57 475.667 467.57 475.667C466.934 475.713 466.311 475.467 465.878 475.001C465.603 474.372 465.487 473.686 465.54 473.002H460.125L460.131 473.002Z" fill="#FBCFAD"/>
<path fill-rule="evenodd" clip-rule="evenodd" d="M439.488 521.307C439.488 521.307 436.443 522.838 434.751 521.973C433.83 521.5 432.857 524.212 433.397 525.969C433.852 526.952 434.719 527.683 435.767 527.967C436.394 527.354 437.073 526.797 437.796 526.302C438.434 525.895 439.116 525.559 439.828 525.303L439.488 521.307Z" fill="#F4C9A0"/>
<path fill-rule="evenodd" clip-rule="evenodd" d="M463.854 532.292L461.485 536.622C461.981 537.365 462.687 537.945 463.515 538.287C464.253 538.338 464.982 538.1 465.546 537.622L467.576 534.624L463.854 532.292Z" fill="#F4C9A0"/>
<path fill-rule="evenodd" clip-rule="evenodd" d="M434.751 521.967C433.923 521.512 432.989 521.284 432.043 521.307C431.231 521.499 430.512 521.97 430.014 522.639L431.367 534.295C431.367 534.295 436.105 533.498 436.443 530.632C436.781 527.766 436.105 527.967 436.105 527.967C435.307 527.249 434.722 526.328 434.413 525.303C434.248 524.18 434.364 523.034 434.751 521.967Z" fill="white"/>
<path fill-rule="evenodd" clip-rule="evenodd" d="M461.147 535.956C460.236 536.6 459.435 537.387 458.777 538.287C458.424 538.89 458.304 539.601 458.439 540.286L469.607 545.282H470.283C471.165 543.336 470.436 541.04 468.591 539.953C467.418 539.123 466.288 538.232 465.208 537.285C464.479 537.662 463.643 537.78 462.838 537.619C462.115 537.252 461.524 536.671 461.147 535.956V535.956Z" fill="white"/>
<path fill-rule="evenodd" clip-rule="evenodd" d="M453.364 503.979C453.364 503.979 453.072 511.031 449.641 514.638C445.813 518.669 438.812 520.303 438.812 520.303V526.632C438.812 526.632 447.118 526.594 453.024 522.967C458.785 519.434 462.162 512.308 462.162 512.308L463.854 512.641C465.12 515.107 465.704 517.864 465.546 520.63C465.134 524.613 464.224 528.529 462.838 532.288L467.914 535.097L468.253 535.286C468.253 535.286 473.103 527.297 473.667 520.63C473.941 515.99 472.884 511.369 470.621 507.305V503.642L453.364 503.979Z" fill="#617EEE"/>
<path fill-rule="evenodd" clip-rule="evenodd" d="M458.194 474.977C456.527 475.992 455.139 477.404 454.155 479.085C452.383 481.219 451.723 504.538 452.01 504.65H471.974C471.974 496.212 471.974 487.774 471.51 479.854C471.022 479.025 470.456 478.244 469.82 477.522C469.119 476.768 468.361 476.069 467.553 475.432C467.58 475.409 465.95 479.557 463.518 479.469C460.864 479.323 458.097 474.95 458.193 474.982L458.194 474.977Z" fill="#FFCE3B"/>
<path fill-rule="evenodd" clip-rule="evenodd" d="M471.637 481.329L477.728 484.993L484.157 475.333L487.88 476.665C487.88 476.665 483.363 486.146 481.112 489.989C480.581 490.7 479.884 491.271 479.082 491.654L471.637 486.993V481.328L471.637 481.329Z" fill="#DEDFDC"/>
<path fill-rule="evenodd" clip-rule="evenodd" d="M455.394 483.328C455.394 483.328 468.874 492.582 469.945 492.321C472.975 491.584 486.189 482.994 486.189 482.994L484.157 478.998L469.945 487.325L457.423 478.998C456.819 478.555 456.046 478.41 455.321 478.605C454.597 478.799 454.001 479.312 453.702 479.997C452.855 481.822 455.394 483.328 455.394 483.328Z" fill="#F7F8F6"/>
<path fill-rule="evenodd" clip-rule="evenodd" d="M485.814 482.969C485.814 482.969 489.374 483.375 490.368 480.944C491.362 478.514 488.714 476.895 488.714 476.895L486.237 478.514C486.237 478.514 488.886 475.921 487.478 475.68C486.071 475.439 484.166 478.92 484.166 478.92L485.814 482.969Z" fill="#FBD1A8"/>
<path fill-rule="evenodd" clip-rule="evenodd" d="M486.798 478.924C486.798 478.924 490.347 478.43 490.684 475.831C491.021 473.233 488.042 472.325 488.042 472.325L486.189 473.669C486.189 473.669 487.953 471.345 486.528 471.458C485.103 471.571 484.156 475.416 484.156 475.416L486.798 478.924Z" fill="#FBD1A8"/>
<path d="M542.614 366.274C542.614 366.274 544.022 400.101 530.616 414.677C517.21 429.254 499.286 444.389 489.086 474.04" stroke="white"/>
<path d="M541.69 375.406L550.92 367.188" stroke="white"/>
<path d="M541.69 374.493L535.231 358.054" stroke="white"/>
<path fill-rule="evenodd" clip-rule="evenodd" d="M527.655 354.916L553.654 347.094L561.989 371.736C558.918 369.81 555.573 368.36 552.066 367.433C549.116 366.869 546.085 366.869 543.135 367.433C541.286 364.277 538.941 361.438 536.19 359.024C533.649 357.1 530.747 355.703 527.655 354.916Z" fill="url(#paint1_linear)"/>
<path fill-rule="evenodd" clip-rule="evenodd" d="M792.522 467.169H797.8V514.74H792.522V467.169Z" fill="#5C6BC6"/>
<path fill-rule="evenodd" clip-rule="evenodd" d="M634.918 473.834H640.198V521.399H634.918V473.834Z" fill="#5C6BC6"/>
<path fill-rule="evenodd" clip-rule="evenodd" d="M623.595 514.74H634.918V560.866H623.595V514.74Z" fill="#8199FF"/>
<path fill-rule="evenodd" clip-rule="evenodd" d="M796.31 514.74H807.633V560.866H796.31V514.74Z" fill="#8199FF"/>
<path fill-rule="evenodd" clip-rule="evenodd" d="M622.796 463.418V474.575L808.412 475.319V463.418H622.796Z" fill="#FFBD56"/>
<path fill-rule="evenodd" clip-rule="evenodd" d="M622.796 481.268V492.426L808.417 493.168V481.268H622.796Z" fill="#FFBD56"/>
<path fill-rule="evenodd" clip-rule="evenodd" d="M623.553 497.632V508.788L809.174 509.532V497.632H623.553Z" fill="#FFBD56"/>
<path fill-rule="evenodd" clip-rule="evenodd" d="M615.22 514.737V525.894L815.994 526.642V514.743H615.22V514.737Z" fill="#FFBD56"/>
<path fill-rule="evenodd" clip-rule="evenodd" d="M742.758 444.176C742.758 444.176 742.176 451.156 737.605 452.558C733.39 453.85 754.617 452.356 754.617 452.356C753.086 451.508 751.822 450.25 750.968 448.725C750.418 447.27 750.109 445.736 750.055 444.182H742.758V444.176Z" fill="#F4C9A0"/>
<path fill-rule="evenodd" clip-rule="evenodd" d="M746.152 410.545C752.507 410.545 758.159 418.626 757.262 428.116C756.534 435.813 755.13 439.443 752.5 443.618C750.093 447.436 742.103 446.103 740.2 443.618C737.321 439.857 735.396 435.423 734.646 427.858C733.713 418.373 739.803 410.545 746.152 410.545Z" fill="#FBD1A8"/>
<path fill-rule="evenodd" clip-rule="evenodd" d="M756.837 426.222C756.837 426.222 760.642 425.652 759.804 430.289C758.863 435.476 756.585 433.965 756.585 433.965L756.837 426.222Z" fill="#E7B690"/>
<path fill-rule="evenodd" clip-rule="evenodd" d="M735.255 426.256C735.255 426.256 732.03 425.473 732.743 429.711C733.551 434.494 735.496 433.361 735.496 433.361L735.255 426.256Z" fill="#E7B690"/>
<path fill-rule="evenodd" clip-rule="evenodd" d="M736.009 432.345C734.85 430.967 734.054 429.322 733.694 427.56C733.07 424.623 732.784 421.625 732.841 418.623C733.625 418.642 734.396 418.418 735.048 417.983C735.872 417.296 735.352 411.329 740.63 410.074C743.119 409.592 745.546 408.834 747.867 407.816L746.025 410.108C746.025 410.108 756.944 409.184 757.952 410.18C758.32 410.546 757.591 410.055 756.642 410.951C755.692 411.847 758.996 411.85 759.153 413.31C759.31 414.769 758.472 413.154 756.563 414.036C755.544 414.506 757.413 415.263 758.37 417.878C759.182 420.524 759.313 423.331 758.75 426.041C758.022 428.521 757.381 430.271 757.381 430.271C757.381 430.271 756.15 421.122 753.906 420.726C751.927 420.162 749.885 419.85 747.828 419.797C746.186 419.916 744.583 420.35 743.106 421.075C743.106 421.075 745.407 419.041 745.436 418.27C745.465 417.499 738.113 419.354 737.351 420.167C737.015 420.527 736.533 420.235 736.297 422.919C736.018 426.205 736.009 432.345 736.009 432.345Z" fill="#844F08"/>
<path fill-rule="evenodd" clip-rule="evenodd" d="M736.096 429.722C736.421 432.294 736.907 434.844 737.552 437.355C738.155 438.702 740.636 439.793 743.23 438.855C744.581 438.6 745.973 438.665 747.293 439.047C748.638 439.515 750.086 439.6 751.476 439.294C753.11 438.501 754.333 437.057 754.842 435.317C756.125 432.285 756.933 429.638 756.927 429.638L757.553 429.682C757.244 431.126 755.353 443.744 754.426 445.22C753.866 445.999 753.017 446.522 752.067 446.672C750.958 446.871 749.83 446.948 748.704 446.903C747.21 446.883 745.356 446.758 742.852 446.666C739.7 446.576 738.14 445.42 737.482 444.036C737.071 443.22 736.864 442.316 736.88 441.402C736.537 437.378 735.52 429.674 735.53 429.679L736.098 429.719L736.096 429.722Z" fill="#844F08"/>
<path fill-rule="evenodd" clip-rule="evenodd" d="M697.479 519.115C696.433 516.626 697.452 513.752 699.835 512.473C714.335 504.752 730.547 500.789 746.983 500.947C771.151 500.915 786.101 508.607 792.874 513.206C795.447 514.908 796.422 518.207 795.186 521.029L781.514 551.95H773.421L779.356 518.642H711.911L720.003 550.388L711.91 552.99L697.479 519.115Z" fill="#6979FF"/>
<path fill-rule="evenodd" clip-rule="evenodd" d="M771.199 550.055C773.098 549.599 775.054 549.422 777.005 549.531C778.843 549.744 780.629 550.276 782.283 551.102L781.227 555.81L770.672 554.765L771.199 550.055Z" fill="#EBEBEB"/>
<path fill-rule="evenodd" clip-rule="evenodd" d="M710.506 552.671L720.534 549.531L721.59 554.24C720.328 554.475 719.091 554.825 717.895 555.287C716.442 555.889 715.031 556.588 713.673 557.38L710.506 552.671Z" fill="#EBEBEB"/>
<path fill-rule="evenodd" clip-rule="evenodd" d="M771.727 555.287C772.719 554.841 773.811 554.661 774.894 554.765C775.963 554.842 777.023 555.017 778.061 555.287L774.894 564.182L770.143 563.659L771.727 555.287Z" fill="#FBD1A8"/>
<path fill-rule="evenodd" clip-rule="evenodd" d="M715.257 556.864C716.098 556.28 716.979 555.755 717.895 555.295C718.751 554.89 719.633 554.54 720.534 554.248L723.172 563.144C722.312 563.401 721.428 563.576 720.534 563.666C719.656 563.729 718.774 563.729 717.895 563.666L715.257 556.864Z" fill="#FBD1A8"/>
<path fill-rule="evenodd" clip-rule="evenodd" d="M769.088 564.706C768.051 565.908 767.326 567.345 766.977 568.891C766.924 570.194 767.295 571.479 768.032 572.555L792.838 573.078C792.838 573.078 796.638 569.205 792.838 567.322C789.038 565.438 785.66 567.112 782.283 566.276C779.915 565.631 777.617 564.755 775.421 563.662L769.616 563.139L769.088 564.706Z" fill="white"/>
<path fill-rule="evenodd" clip-rule="evenodd" d="M723.678 562.092C724.71 563.296 725.432 564.733 725.778 566.279C725.831 567.58 725.463 568.864 724.729 569.941L700.041 570.464C700.041 570.464 696.256 566.593 700.041 564.709C703.827 562.826 707.185 564.5 710.547 563.662C712.904 563.017 715.191 562.141 717.375 561.048L723.152 560.525L723.678 562.092Z" fill="white"/>
<path fill-rule="evenodd" clip-rule="evenodd" d="M725.042 456.919C725.042 456.919 726.206 453.579 731.938 452.327C734.043 451.868 736.81 450.686 739.633 451.496C743.683 452.658 748.203 453.83 752.134 451.249C754.056 449.987 756.709 451.139 758.844 451.005C769.423 450.491 780.026 450.817 790.554 451.98C792.213 452.173 793.421 453.642 793.286 455.302L792.172 470.358L785.982 470.897L783.602 460.683L769.381 464.696C767.54 465.22 766.072 466.608 765.45 468.414L763.412 472.643C762.919 475.971 762.611 479.324 762.49 482.686L765.256 502.774C765.256 502.774 754.817 501.29 746.814 502.774C741.581 503.517 736.251 503.206 731.139 501.86L731.221 494.55L723.603 503.69C723.603 503.69 717.413 504.047 716.461 498.852C715.964 496.136 717.425 485.394 719.793 475.197C721.97 465.878 725.042 456.919 725.042 456.919Z" fill="white"/>
<path fill-rule="evenodd" clip-rule="evenodd" d="M724.332 467.409L733.895 459.391C734.776 458.652 736.098 458.807 736.785 459.729L749.137 476.326L740.383 483.831L724.332 467.409Z" fill="#564E8E"/>
<path fill-rule="evenodd" clip-rule="evenodd" d="M735.491 488.37L742.3 478.99V467.734C742.3 467.734 734.68 471.8 732.573 473.361C730.466 474.923 726.736 469.611 726.736 469.611L725.762 472.423L728.674 475.707L729.16 481.334L735.491 488.37Z" fill="#FBD1A8"/>
<path fill-rule="evenodd" clip-rule="evenodd" d="M792.455 470.432L794.773 475.618C794.773 475.618 794.896 477.806 794.773 480.284C794.65 482.762 794.31 484.951 794.31 484.951L791.529 489.617L788.748 490.654L784.577 482.358L784.114 477.692L781.333 481.841L779.943 479.766L785.505 470.952L792.455 470.432Z" fill="#FBD1A8"/>
<path fill-rule="evenodd" clip-rule="evenodd" d="M235.47 369.862C235.296 371.473 234.823 373.038 234.076 374.475C233.389 375.498 232.421 376.299 231.289 376.78C231.289 376.78 236.11 380.015 240.118 379.548C244.014 379.093 247.087 374.936 247.087 374.936C245.7 374.438 244.433 373.652 243.37 372.63C242.472 371.561 241.836 370.298 241.512 368.939L235.47 369.862Z" fill="#F4C9A0"/>
<path fill-rule="evenodd" clip-rule="evenodd" d="M238.49 339.423C243.75 339.423 248.016 346.443 248.016 355.104C247.933 358.519 246.973 361.855 245.228 364.789C243.482 368.096 241.361 370.785 238.49 370.785C235.619 370.785 233.961 368.598 232.218 365.25C230.786 362.507 228.965 359.004 228.965 355.104C228.965 346.443 233.23 339.423 238.49 339.423Z" fill="#FBD1A8"/>
<path fill-rule="evenodd" clip-rule="evenodd" d="M216.418 399.38L197.367 441.812C194.737 442.493 192.229 443.58 189.932 445.034C186.789 447.405 184.818 452.413 184.818 452.413C184.818 452.413 187.962 449.726 189.932 448.263C190.612 447.658 191.4 447.188 192.255 446.879L193.184 449.645L193.65 451.492C193.65 451.492 194.778 455.049 195.509 451.952C196.239 448.855 195.044 448.263 195.044 448.263C195.322 447.395 195.8 446.605 196.438 445.956C195.811 446.365 200.155 444.111 200.155 444.111L224.318 403.069L216.418 399.38Z" fill="#FBD1A8"/>
<path fill-rule="evenodd" clip-rule="evenodd" d="M221.526 381.853C219.198 386.157 213.161 399.38 213.161 399.38C214.974 400.27 216.688 401.35 218.275 402.602C219.95 404.006 221.504 405.548 222.921 407.214C224.032 405.871 224.826 404.295 225.244 402.602C225.399 400.68 227.728 404.066 228.032 405.824C228.42 410.89 228.42 415.978 228.032 421.044C227.567 423.503 219.625 432.78 218.074 437.085C216.524 441.391 213.085 457.633 206.658 461.169C200.231 464.706 188.845 460.401 185.747 461.631C180.04 463.935 176.603 469.809 177.383 475.927C178.39 484.538 185.747 478.695 185.747 478.695C185.747 478.695 185.36 478.619 183.424 482.385C181.488 486.152 184.818 493.076 195.506 496.22C206.193 499.365 206.193 503.138 212.233 509.136C215.354 512.233 231.36 523.583 244.761 523.432C260.157 523.259 278.95 512.549 279.147 510.057C280.013 499.373 275.925 481.53 265.672 450.561C262.547 441.261 258.499 432.3 253.59 423.81C253.59 423.81 251.033 410.974 252.661 403.517C254.288 396.06 255.913 398.906 255.913 398.906C255.913 398.906 259.088 403.056 260.559 403.517C261.313 403.754 262.459 401.789 264.278 399.367C266.016 397.059 268.459 394.294 268.459 394.294C268.459 394.294 260.946 381.992 258.232 379.996C255.517 378 247.544 375.385 247.544 375.385C245.26 377.257 242.545 378.525 239.646 379.074C236.899 379.181 234.173 378.549 231.753 377.241C231.753 377.241 223.853 377.549 221.526 381.853Z" fill="white"/>
<path d="M235.47 391.078L235.935 406.76L245.693 407.682V391.078H235.466H235.47Z" fill="#564E8E"/>
<path fill-rule="evenodd" clip-rule="evenodd" d="M267.758 394.623C267.758 394.623 272.952 408.67 274.283 411.172C275.614 413.673 272.885 418.393 266.832 416.685C260.779 414.978 250.518 406.118 250.518 406.118C248.33 405.121 245.895 404.801 243.525 405.198C239.873 405.555 235.729 400.406 234.046 398.06C233.553 397.375 233.27 396.928 233.27 396.928C233.27 396.928 233.178 394.547 236.999 397.386C244.536 402.989 243.991 399.684 243.991 399.684C244.487 398.366 244.647 396.945 244.457 395.55C244.457 395.55 244.923 392.07 246.788 395.55C248.002 398.048 249.753 400.244 251.916 401.982C255.997 404.636 260.378 406.796 264.968 408.415L261.239 402.442L267.758 394.623Z" fill="#FBD1A8"/>
<path fill-rule="evenodd" clip-rule="evenodd" d="M224.782 517.451L234.076 571.872C234.076 571.872 230.669 571.719 224.782 577.869C218.896 584.02 221.995 586.17 221.995 586.17L240.582 577.407L239.653 522.524C239.653 522.524 235.09 521.515 231.289 520.217C229.057 519.451 226.883 518.527 224.782 517.451V517.451Z" fill="#FBD1A8"/>
<path fill-rule="evenodd" clip-rule="evenodd" d="M260.567 519.295C260.567 519.295 278.225 558.343 282.406 567.722C286.588 577.101 285.659 578.791 285.659 578.791L308.428 582.012C308.428 582.012 315.553 579.706 301.923 574.172C288.293 568.637 292.165 572.788 292.165 572.788L273.57 513.76C271.457 514.943 269.286 516.018 267.065 516.982C264.942 517.87 262.773 518.642 260.567 519.295Z" fill="#FBD1A8"/>
<path fill-rule="evenodd" clip-rule="evenodd" d="M231.753 557.576C233.112 558.592 234.715 559.229 236.399 559.42C238.106 559.42 240.582 557.113 240.582 557.113V572.334C240.582 572.334 232.671 580.681 227.106 578.791C225.978 578.407 233.147 571.872 233.147 571.872L231.753 557.576Z" fill="white"/>
<path fill-rule="evenodd" clip-rule="evenodd" d="M278.221 558.499C279.784 558.722 281.378 558.563 282.867 558.036C284.272 557.363 285.535 556.423 286.585 555.27L292.16 571.411C292.16 571.411 305.396 576.029 303.777 576.945C302.158 577.862 285.66 575.102 285.66 575.102L278.221 558.499Z" fill="white"/>
<path fill-rule="evenodd" clip-rule="evenodd" d="M292.16 570.95C295.639 571.787 299.057 572.863 302.388 574.172C306.555 575.882 310.093 578.228 310.288 579.245C310.974 582.849 306.094 582.477 300.06 581.551C293.474 580.539 285.654 578.783 285.654 578.783C285.412 578.035 285.256 577.261 285.19 576.477C285.13 575.556 285.13 574.631 285.19 573.71C285.19 573.71 284.845 575.572 294.483 576.477C296.84 576.699 300.62 577.19 303.313 576.477C305.455 575.919 292.16 570.95 292.16 570.95Z" fill="#6280FF"/>
<path fill-rule="evenodd" clip-rule="evenodd" d="M241.07 572.479C241.396 573.231 241.613 574.027 241.715 574.841C241.747 575.567 241.611 576.29 241.317 576.954C239.223 578.63 236.957 580.077 234.557 581.27C229.188 584.461 221.407 586.21 221.391 585.81C221.04 585.269 220.848 584.639 220.836 583.994C220.829 583.85 220.829 583.7 220.836 583.541C220.836 583.383 220.861 583.218 220.886 583.046C220.946 582.665 221.044 582.291 221.178 581.929C221.557 580.938 222.095 580.016 222.772 579.199C225.154 576.071 232.884 572.203 232.881 572.278C233.356 571.993 233.83 571.706 234.301 571.418C234.336 571.335 225.817 578.183 227.161 578.383C234.354 577.679 241.117 572.422 241.07 572.479Z" fill="#6280FF"/>
<path fill-rule="evenodd" clip-rule="evenodd" d="M237.741 417.732C243.108 418.443 250.744 418.216 252.725 417.732C253.38 419.455 253.662 420.857 253.662 423.2C249.646 424.338 244.297 423.982 240.024 423.928C236.025 423.68 231.767 422.246 228.117 420.857C227.97 418.713 228.433 416.718 228.376 414.608L229.313 415.389C229.313 415.389 232.381 417.022 237.741 417.732Z" fill="#FF907B"/>
<path fill-rule="evenodd" clip-rule="evenodd" d="M127.181 436.3C127.181 436.3 111.941 438.088 101.16 446.908C90.8067 455.376 84.8953 470.891 84.8953 470.891C84.8953 470.891 75.3166 476.814 76.9369 479.357C77.27 479.88 77.5739 480.454 77.926 481.038C83.2297 489.841 85.1407 493.408 88.1534 499.49C89.8059 502.829 94.1437 511.222 94.6595 511.939C97.399 515.73 113.247 514.245 113.247 514.245C113.535 515.831 114.002 517.378 114.641 518.857C115.377 520.361 116.315 521.757 117.429 523.007L157.39 522.546C158.325 521.425 159.106 520.184 159.714 518.857C160.239 517.531 160.552 516.13 160.644 514.706C164.025 515.267 167.444 515.575 170.871 515.628C180.252 515.628 182.336 516.136 190.386 495.334C193.327 487.219 195.657 478.894 197.357 470.429H127.646L127.181 436.3Z" fill="#617FF3"/>
<path fill-rule="evenodd" clip-rule="evenodd" d="M85.3599 493.952L190.841 494.413L189.435 498.563H87.2359L85.3599 493.952Z" fill="#F8FAFF"/>
<path fill-rule="evenodd" clip-rule="evenodd" d="M146.33 522.454L109.621 560.736L112.873 563.958L150.976 524.755C150.601 523.817 149.954 523.013 149.117 522.449C148.215 522.132 147.231 522.134 146.33 522.454Z" fill="#DCDEEE"/>
<path fill-rule="evenodd" clip-rule="evenodd" d="M194.559 450.137C194.559 450.137 139.717 504.88 128.575 516.55C127.716 517.768 127.232 519.21 127.181 520.701C128.035 521.837 128.967 522.914 129.969 523.922C138.459 532.249 166.678 559.436 166.678 559.436L163.89 562.202C163.89 562.202 129.758 531.485 121.14 523.461C120.222 522.499 119.44 521.415 118.817 520.239C118.436 519.154 118.61 517.95 119.281 517.017C130.43 505.526 191.311 445.53 191.311 445.53C191.311 445.53 193.795 445.357 194.565 446.453C195.404 447.652 194.559 450.137 194.559 450.137Z" fill="#E7EBFF"/>
<path fill-rule="evenodd" clip-rule="evenodd" d="M104.194 553.867C113.46 553.951 120.911 561.534 120.854 570.821C120.798 580.109 113.256 587.6 103.99 587.572C94.7243 587.544 87.2275 580.007 87.2271 570.72C87.2698 561.37 94.8661 553.824 104.194 553.867Z" fill="white"/>
<path d="M103.695 583.092C110.755 583.092 116.479 577.355 116.479 570.278C116.479 563.2 110.755 557.463 103.695 557.463C96.6341 557.463 90.9104 563.2 90.9104 570.278C90.9104 577.355 96.6341 583.092 103.695 583.092Z" fill="#F7F8FF"/>
<path d="M103.671 576.112C106.886 576.112 109.492 573.5 109.492 570.278C109.492 567.055 106.886 564.443 103.671 564.443C100.457 564.443 97.8504 567.055 97.8504 570.278C97.8504 573.5 100.457 576.112 103.671 576.112Z" fill="#BBC4FF"/>
<path d="M171.999 587.257C181.354 587.257 188.938 579.655 188.938 570.278C188.938 560.9 181.354 553.298 171.999 553.298C162.644 553.298 155.059 560.9 155.059 570.278C155.059 579.655 162.644 587.257 171.999 587.257Z" fill="white"/>
<path d="M171.543 582.658C178.604 582.658 184.327 576.921 184.327 569.844C184.327 562.767 178.604 557.03 171.543 557.03C164.483 557.03 158.759 562.767 158.759 569.844C158.759 576.921 164.483 582.658 171.543 582.658Z" fill="#F7F8FF"/>
<path d="M171.52 575.655C174.734 575.655 177.341 573.043 177.341 569.821C177.341 566.598 174.734 563.986 171.52 563.986C168.305 563.986 165.699 566.598 165.699 569.821C165.699 573.043 168.305 575.655 171.52 575.655Z" fill="#BBC4FF"/>
<path fill-rule="evenodd" clip-rule="evenodd" d="M239.82 340.41C239.82 340.41 242.825 345.297 229.544 352.454C227.506 353.554 229.344 358.643 230.945 361.719C232.462 364.615 234.178 367.402 236.082 370.058C236.082 370.058 236.176 375.988 232.346 378.395C228.517 380.803 221.884 379.693 218.802 383.492C215.721 387.291 213.198 380.064 206.658 382.565C200.118 385.066 196.477 371.819 205.724 363.572C214.971 355.326 221.418 354.122 223.472 348.284C225.526 342.447 229.263 335.127 235.149 335.776C241.034 336.425 239.82 340.41 239.82 340.41Z" fill="#5B3720"/>
<path fill-rule="evenodd" clip-rule="evenodd" d="M235.704 338.434C229.765 338.434 227.336 351.849 224.926 351.849C231.549 351.849 236.534 343.14 236.534 337.762L236.477 338.039" fill="#6E452C"/>
<path fill-rule="evenodd" clip-rule="evenodd" d="M219.591 355.686C212.073 367.897 205.64 361.898 205.64 378.306C205.64 369.595 210.29 366.151 216.671 361.402L221.754 354.292L221.762 354.258" fill="#6E452C"/>
<path fill-rule="evenodd" clip-rule="evenodd" d="M238.287 338.979C238.113 338.203 238.35 337.391 238.914 336.831C239.478 336.271 240.29 336.041 241.063 336.223C244.308 336.59 249.784 339.08 255.897 344.03C259.767 347.164 256.362 352.757 256.362 352.757C256.362 352.757 256.268 351.929 255.434 356.431C254.6 360.933 261.738 358.085 260.533 369.291C259.328 380.497 268.13 388.768 257.757 387.201C247.383 385.634 254.791 380.497 248.022 375.72C241.253 370.943 244.239 373.481 240.606 370.209C240.167 369.815 244.685 366.037 246.631 361.942C247.964 359.14 248.554 354.978 247.559 352.757C245.928 349.112 244.463 349.188 241.997 345.874C235.793 337.526 239.221 340.361 239.221 340.361L238.287 338.979Z" fill="#5B3720"/>
<path fill-rule="evenodd" clip-rule="evenodd" d="M242.878 339.935L244.752 338.997L252.214 348.415C245.8 348.415 245.931 339.989 239.993 339.989C240.01 340.082 240.024 340.175 240.04 340.268" fill="#73492F"/>
<path fill-rule="evenodd" clip-rule="evenodd" d="M253.748 356.935C252.906 361.736 257.4 360.374 258.217 363.992L258.831 374.43C259.67 376.828 260.512 379.225 261.354 381.622C261.354 381.622 257.06 376.033 256.812 373.809C255.809 364.851 252.377 363.614 252.377 353.953L252.586 354.331" fill="#72482F"/>
<path opacity="0.378725" fill-rule="evenodd" clip-rule="evenodd" d="M596 55L733 52.1563L711.565 44.5731C711.565 44.5731 707.131 23.7192 700.381 23.7192C693.631 23.7192 690.738 30.9014 690.738 35.094C690.738 39.2867 686.401 -1.06432 667.021 0.0215389C647.641 1.1074 644.065 19.1778 646.327 31.8754C646.327 31.8754 640.556 11.2584 627.878 13.2922C615.2 15.326 607.184 27.314 607.184 46.8444L596 55Z" fill="#C7DBFF"/>
<defs>
<linearGradient id="paint0_linear" x1="962.235" y1="626.499" x2="962.235" y2="94.0204" gradientUnits="userSpaceOnUse">
<stop stop-color="#EDF3FF"/>
<stop offset="1" stop-color="white"/>
</linearGradient>
<linearGradient id="paint1_linear" x1="536.408" y1="342.738" x2="529.799" y2="368.783" gradientUnits="userSpaceOnUse">
<stop stop-color="#FFCB44"/>
<stop offset="1" stop-color="#FF8169"/>
</linearGradient>
</defs>
</svg>
